<svg width="37" height="37" viewBox="0 0 37 37" fill="none" xmlns="http://www.w3.org/2000/svg">
<mask id="mask0_886_3456" style="mask-type:luminance" maskUnits="userSpaceOnUse" x="0" y="0" width="37" height="37">
<path d="M18.354 36.2491C28.364 36.2491 36.4786 28.1345 36.4786 18.1246C36.4786 8.11464 28.364 0 18.354 0C8.34413 0 0.229492 8.11464 0.229492 18.1246C0.229492 28.1345 8.34413 36.2491 18.354 36.2491Z" fill="white"/>
</mask>
<g mask="url(#mask0_886_3456)">
<path d="M9.15076 30.1071H8.1499V36.9575H9.15076V30.1071Z" fill="#00FFA9"/>
<path d="M10.5179 27.2638H9.51709V36.9576H10.5179V27.2638Z" fill="#00FFA9"/>
<path d="M11.8851 24.5297H10.8843V36.9575H11.8851V24.5297Z" fill="#00FFA9"/>
<path d="M13.2518 21.9634H12.251V36.9575H13.2518V21.9634Z" fill="#00FFA9"/>
<path d="M14.6195 19.3129H13.6187V36.957H14.6195V19.3129Z" fill="#00FFA9"/>
<path d="M15.9867 18.3754H14.9858V36.9575H15.9867V18.3754Z" fill="#00FFA9"/>
<path d="M17.3539 20.1721H16.353V36.9575H17.3539V20.1721Z" fill="#00FFA9"/>
<path d="M18.7211 21.9634H17.7202V36.9575H18.7211V21.9634Z" fill="#00FFA9"/>
<path d="M20.0883 23.9193H19.0874V36.9576H20.0883V23.9193Z" fill="#00FFA9"/>
<path d="M21.4554 25.4128H20.4546V36.9575H21.4554V25.4128Z" fill="#00FFA9"/>
<path d="M22.8226 25.8273H21.8218V36.957H22.8226V25.8273Z" fill="#00FFA9"/>
<path d="M24.1898 25.717H23.189V36.9575H24.1898V25.717Z" fill="#00FFA9"/>
<path d="M25.557 24.0088H24.5562V36.9575H25.557V24.0088Z" fill="#00FFA9"/>
<path d="M26.9242 19.7726H25.9233V36.9575H26.9242V19.7726Z" fill="#00FFA9"/>
<path d="M28.2914 14.5116H27.2905V36.957H28.2914V14.5116Z" fill="#00FFA9"/>
<path d="M29.6586 9.59251H28.6577V36.9575H29.6586V9.59251Z" fill="#00FFA9"/>
<path d="M31.0253 -0.561432H30.0244V36.9575H31.0253V-0.561432Z" fill="#00FFA9"/>
<path d="M32.4188 -0.561432H31.418V36.9575H32.4188V-0.561432Z" fill="#00FFA9"/>
<path d="M33.8119 -0.561432H32.811V36.9575H33.8119V-0.561432Z" fill="#00FFA9"/>
<path d="M35.2054 -0.561432H34.2046V36.9575H35.2054V-0.561432Z" fill="#00FFA9"/>
<path d="M36.598 -0.561432H35.5972V36.9575H36.598V-0.561432Z" fill="#00FFA9"/>
<path d="M9.15076 -0.543289H8.1499V23.9006H9.15076V-0.543289Z" fill="#00FFA9"/>
<path d="M10.5179 -0.607208H9.51709V19.2538H10.5179V-0.607208Z" fill="#00FFA9"/>
<path d="M11.8851 -0.607208H10.8843V15.4507H11.8851V-0.607208Z" fill="#00FFA9"/>
<path d="M13.2518 -0.607208H12.251V12.4241H13.2518V-0.607208Z" fill="#00FFA9"/>
<path d="M6.40466 -0.607208H5.40381V37.0012H6.40466V-0.607208Z" fill="#00FFA9"/>
<path d="M5.05115 -0.607208H4.05029V37.0012H5.05115V-0.607208Z" fill="#00FFA9"/>
<path d="M3.73767 -0.607208H2.73682V37.0012H3.73767V-0.607208Z" fill="#00FFA9"/>
<path d="M2.42419 -0.607208H1.42334V37.0012H2.42419V-0.607208Z" fill="#00FFA9"/>
<path d="M1.11072 -0.607224H0.109863V37.0012H1.11072V-0.607224Z" fill="#00FFA9"/>
<path d="M7.77136 -0.607208H6.77051V28.0202H7.77136V-0.607208Z" fill="#00FFA9"/>
<path d="M14.6195 -0.607208H13.6187V11.8904H14.6195V-0.607208Z" fill="#00FFA9"/>
<path d="M15.9867 -0.607208H14.9858V11.8494H15.9867V-0.607208Z" fill="#00FFA9"/>
<path d="M17.3539 -0.607208H16.353V12.6633H17.3539V-0.607208Z" fill="#00FFA9"/>
<path d="M18.7211 -0.607208H17.7202V14.4168H18.7211V-0.607208Z" fill="#00FFA9"/>
<path d="M20.0883 -0.607208H19.0874V16.4526H20.0883V-0.607208Z" fill="#00FFA9"/>
<path d="M21.4554 -0.607208H20.4546V18.27H21.4554V-0.607208Z" fill="#00FFA9"/>
<path d="M22.8226 -0.607208H21.8218V19.3321H22.8226V-0.607208Z" fill="#00FFA9"/>
<path d="M24.1898 -0.607208H23.189V16.6411H24.1898V-0.607208Z" fill="#00FFA9"/>
<path d="M25.557 -0.607208H24.5562V13.9534H25.557V-0.607208Z" fill="#00FFA9"/>
<path d="M26.9242 -0.607208H25.9233V10.6824H26.9242V-0.607208Z" fill="#00FFA9"/>
<path d="M28.2914 -0.607208H27.2905V7.19508H28.2914V-0.607208Z" fill="#00FFA9"/>
</g>
<mask id="mask1_886_3456" style="mask-type:luminance" maskUnits="userSpaceOnUse" x="0" y="0" width="37" height="37">
<path d="M18.1246 36.6992C28.1345 36.6992 36.2491 28.5846 36.2491 18.5746C36.2491 8.56473 28.1345 0.450089 18.1246 0.450089C8.11464 0.450089 0 8.56473 0 18.5746C0 28.5846 8.11464 36.6992 18.1246 36.6992Z" fill="white"/>
</mask>
<g mask="url(#mask1_886_3456)">
<path d="M8.92175 30.5572H7.9209V37.4076H8.92175V30.5572Z" fill="#00FFA9"/>
<path d="M10.2884 27.7144H9.2876V37.4081H10.2884V27.7144Z" fill="#00FFA9"/>
<path d="M11.6556 24.9797H10.6548V37.4076H11.6556V24.9797Z" fill="#00FFA9"/>
<path d="M13.0228 22.414H12.022V37.4082H13.0228V22.414Z" fill="#00FFA9"/>
<path d="M14.3905 19.7635H13.3896V37.4076H14.3905V19.7635Z" fill="#00FFA9"/>
<path d="M15.7572 18.826H14.7563V37.4081H15.7572V18.826Z" fill="#00FFA9"/>
<path d="M17.1244 20.6227H16.1235V37.4081H17.1244V20.6227Z" fill="#00FFA9"/>
<path d="M18.4916 22.414H17.4907V37.4082H18.4916V22.414Z" fill="#00FFA9"/>
<path d="M19.8593 24.3699H18.8584V37.4081H19.8593V24.3699Z" fill="#00FFA9"/>
<path d="M21.2264 25.8634H20.2256V37.4081H21.2264V25.8634Z" fill="#00FFA9"/>
<path d="M22.5931 26.2778H21.5923V37.4076H22.5931V26.2778Z" fill="#00FFA9"/>
<path d="M23.9603 26.1671H22.9595V37.4076H23.9603V26.1671Z" fill="#00FFA9"/>
<path d="M25.328 24.4594H24.3271V37.4081H25.328V24.4594Z" fill="#00FFA9"/>
<path d="M26.6952 20.2232H25.6943V37.4081H26.6952V20.2232Z" fill="#00FFA9"/>
<path d="M28.0619 14.9622H27.061V37.4076H28.0619V14.9622Z" fill="#00FFA9"/>
<path d="M29.4291 10.0431H28.4282V37.4081H29.4291V10.0431Z" fill="#00FFA9"/>
<path d="M30.7968 -0.110825H29.7959V37.4081H30.7968V-0.110825Z" fill="#00FFA9"/>
<path d="M32.1893 -0.110825H31.1885V37.4081H32.1893V-0.110825Z" fill="#00FFA9"/>
<path d="M33.5829 -0.110825H32.582V37.4081H33.5829V-0.110825Z" fill="#00FFA9"/>
<path d="M34.9759 -0.110825H33.9751V37.4081H34.9759V-0.110825Z" fill="#00FFA9"/>
<path d="M36.369 -0.110825H35.3682V37.4081H36.369V-0.110825Z" fill="#00FFA9"/>
<path d="M8.92175 -0.0926971H7.9209V24.3512H8.92175V-0.0926971Z" fill="#00FFA9"/>
<path d="M10.2884 -0.15715H9.2876V19.7038H10.2884V-0.15715Z" fill="#00FFA9"/>
<path d="M11.6556 -0.15715H10.6548V15.9007H11.6556V-0.15715Z" fill="#00FFA9"/>
<path d="M13.0228 -0.15715H12.022V12.8742H13.0228V-0.15715Z" fill="#00FFA9"/>
<path d="M6.17517 -0.15715H5.17432V37.4513H6.17517V-0.15715Z" fill="#00FFA9"/>
<path d="M4.82165 -0.15715H3.8208V37.4513H4.82165V-0.15715Z" fill="#00FFA9"/>
<path d="M3.50818 -0.15715H2.50732V37.4513H3.50818V-0.15715Z" fill="#00FFA9"/>
<path d="M2.1947 -0.15715H1.19385V37.4513H2.1947V-0.15715Z" fill="#00FFA9"/>
<path d="M0.881225 -0.15715H-0.119629V37.4513H0.881225V-0.15715Z" fill="#00FFA9"/>
<path d="M7.54285 -0.15715H6.54199V28.4702H7.54285V-0.15715Z" fill="#00FFA9"/>
<path d="M14.3905 -0.15715H13.3896V12.3405H14.3905V-0.15715Z" fill="#00FFA9"/>
<path d="M15.7572 -0.15715H14.7563V12.2995H15.7572V-0.15715Z" fill="#00FFA9"/>
<path d="M17.1244 -0.15715H16.1235V13.1133H17.1244V-0.15715Z" fill="#00FFA9"/>
<path d="M18.4916 -0.15715H17.4907V14.8668H18.4916V-0.15715Z" fill="#00FFA9"/>
<path d="M19.8593 -0.15715H18.8584V16.9026H19.8593V-0.15715Z" fill="#00FFA9"/>
<path d="M21.2264 -0.15715H20.2256V18.72H21.2264V-0.15715Z" fill="#00FFA9"/>
<path d="M22.5931 -0.15715H21.5923V19.7821H22.5931V-0.15715Z" fill="#00FFA9"/>
<path d="M23.9603 -0.15715H22.9595V17.0912H23.9603V-0.15715Z" fill="#00FFA9"/>
<path d="M25.328 -0.15715H24.3271V14.4034H25.328V-0.15715Z" fill="#00FFA9"/>
<path d="M26.6952 -0.15715H25.6943V11.1324H26.6952V-0.15715Z" fill="#00FFA9"/>
<path d="M28.0619 -0.15715H27.061V7.64514H28.0619V-0.15715Z" fill="#00FFA9"/>
</g>
</svg>
